{"title":"War Horse 2011 BRRip 720p AC3-anna79","uid":8390710,"size":2476234843,"categoryP":"video","categoryS":"hd___movies","magnet":"?xt=urn:btih:09fe7eb17ba7957cf59c2f94c6ebbe83e131ee33&amp;dn=War+Horse+2011+BRRip+720p+AC3-anna79&amp;tr=udp%3A%2F%2Ftracker.openbittorrent.com%3A80&amp;tr=udp%3A%2F%2Fopen.demonii.com%3A1337&amp;tr=udp%3A%2F%2Ftracker.coppersurfer.tk%3A6969&amp;tr=udp%3A%2F%2Fexodus.desync.com%3A6969","seeders":1,"leechers":0,"uploader":"R0thschild","files":3,"time":1366422033,"description":"--------------------------------------------\n &lt;a href=&quot;\nhttp://www.imdb.com/title/tt1568911/&quot; rel=&quot;nofollow&quot; target=&quot;_NEW&quot;&gt;\nhttp://www.imdb.com/title/tt1568911/&lt;/a&gt;\n\n146 min  -  Drama | War  -  24 February 2012 (Bulgaria)\n7,2 Your rating:    -/10   Ratings: 7,2/10 from 70 282 users   Metascore: 72/100 \nReviews: 427 user | 360 critic\n\nSUBTiTLES.......: Bulgarian\n\nLanguage : English\n\nFormat                           : Matroska\nFormat version                   : Version 2\nFile size                        : 2.31 GiB\nDuration                         : 2h 26mn\nOverall bit rate                 : 2 251 Kbps\nWriting application              : Lavf51.12.1\nWriting library                  : Lavf51.12.1\n\nVideo\nID                               : 1\nFormat                           : AVC\nFormat/Info                      : Advanced Video Codec\nFormat profile                   : &lt;a class=&quot;__cf_email__&quot; href=&quot;/cdn-cgi/l/email-protection&quot; data-cfemail=&quot;32705341575e5b5c57727e011c03&quot;&gt;[email&amp;#160;protected]&lt;/a&gt;&lt;script cf-hash='f9e31' type=&quot;text/javascript&quot;&gt;\n/* &lt;![CDATA[ */!function(){try{var t=&quot;currentScript&quot;in document?document.currentScript:function(){for(var t=document.getElementsByTagName(&quot;script&quot;),e=t.length;e--;)if(t[e].getAttribute(&quot;cf-hash&quot;))return t[e]}();if(t&amp;&amp;t.previousSibling){var e,r,n,i,c=t.previousSibling,a=c.getAttribute(&quot;data-cfemail&quot;);if(a){for(e=&quot;&quot;,r=parseInt(a.substr(0,2),16),n=2;a.length-n;n+=2)i=parseInt(a.substr(n,2),16)^r,e+=String.fromCharCode(i);e=document.createTextNode(e),c.parentNode.replaceChild(e,c)}}}catch(u){}}();/* ]]&gt; */&lt;/script&gt;\nFormat settings, CABAC           : No\nFormat settings, ReFrames        : 1 frame\nFormat settings, GOP             : M=1, N=12\nCodec ID                         : V_MPEG4/ISO/AVC\nDuration                         : 2h 26mn\nBit rate mode                    : Variable\nBit rate                         : 1 758 Kbps\nMaximum bit rate                 : 2 700 Kbps\nWidth                            : 1 280 pixels\nHeight                           : 528 pixels\nDisplay aspect ratio             : 2.40:1\nFrame rate                       : 23.976 fps\nOriginal frame rate              : 24.000 fps\nColor space                      : YUV\nChroma subsampling               : 4:2:0\nBit depth                        : 8 bits\nScan type                        : Progressive\nBits/(Pixel*Frame)               : 0.109\nStream size                      : 1.80 GiB (78%)\nLanguage                         : English / English\n\nAudio\nID                               : 2\nFormat                           : AC-3\nFormat/Info                      : Audio Coding 3\nMode extension                   : CM (complete main)\nCodec ID                         : A_AC3\nDuration                         : 2h 26mn\nBit rate mode                    : Constant\nBit rate                         : 448 Kbps\nChannel(s)                       : 6 channels\nChannel positions                : Front: L C R, Side: L R, LFE\nSampling rate                    : 44.1 KHz\nBit depth                        : 16 bits\nCompression mode                 : Lossy\nStream size                      : 470 MiB (20%)\nLanguage                         : English / English\n\n--------------------------------------------\n\nMore at   &lt;a href=&quot;\nhttp://publichash.com/&quot; rel=&quot;nofollow&quot; target=&quot;_NEW&quot;&gt;\nhttp://publichash.com/&lt;/a&gt;\n\n--------------------------------------------\t","torrent":{"xt":"urn:btih:09fe7eb17ba7957cf59c2f94c6ebbe83e131ee33","amp;dn":"War+Horse+2011+BRRip+720p+AC3-anna79","amp;tr":["udp%3A%2F%2Ftracker.openbittorrent.com%3A80","udp%3A%2F%2Fopen.demonii.com%3A1337","udp%3A%2F%2Ftracker.coppersurfer.tk%3A6969","udp%3A%2F%2Fexodus.desync.com%3A6969"],"infoHash":"09fe7eb17ba7957cf59c2f94c6ebbe83e131ee33","infoHashBuffer":{"type":"Buffer","data":[9,254,126,177,123,167,149,124,245,156,47,148,198,235,190,131,225,49,238,51]},"announce":[],"urlList":[]}}